<svg xmlns="http://www.w3.org/2000/svg" viewBox="0 0 1421.97 1040.37"><defs><style>.a{fill:#a52b00;}.b{fill:#f74c00;}.c{fill:#fff;}.d{fill:none;stroke:#000;stroke-miterlimit:10;stroke-width:3.34px;}</style></defs><title>cartesian-ferris</title><path class="a" d="M964.17,690.71c-114.6,0-218.17,13.78-296.17,36.23v-5.07c-78,25.09-127.68,60-127.68,98.51a47.94,47.94,0,0,0,3.7,17.93l-8,14.32s-6.42,8.36,4.93,26c10,15.55,60.17,76.43,86.63,108.32,11.37,16.34,19.08,26.41,19.76,25.44,1.06-1.55-7.07-32.23-29.64-67.25-10.53-18.8-23.36-43.71-30.91-62.12C607.89,896.37,636,908.47,668,918.89v-.16C746,941.18,849.57,955,964.17,955c131.16,0,248.83-18.05,327.83-46.5V737.21C1213,708.76,1095.33,690.71,964.17,690.71Z" transform="translate(-71.78 -39.07)"/><path class="a" d="M1409.87,849.54l-13.43-27.83c.07-1.05.12-2.11.12-3.17,0-31.55-32.81-60.62-88-83.9v167.8c25.75-10.86,46.65-23,61.59-36-4.4,17.68-19.44,53.46-31.43,78.61-19.71,36-26.84,67.31-25.93,68.86.59,1,7.31-9.4,17.22-26.2,23.07-32.88,66.79-95.64,75.53-111.63C1415.44,857.92,1409.87,849.54,1409.87,849.54Z" transform="translate(-71.78 -39.07)"/><path class="b" d="M1487.87,849.38l-88.3-65c-.83-2.89-1.66-5.79-2.52-8.66l29-42a15.77,15.77,0,0,0,1.63-14.71,14.71,14.71,0,0,0-11.12-9.17l-49-8.33c-1.9-3.87-3.89-7.69-5.89-11.48l20.61-47.17a15.67,15.67,0,0,0-1.14-14.75,14.34,14.34,0,0,0-12.62-6.75l-49.77,1.81c-2.58-3.35-5.19-6.68-7.87-9.94l11.44-50.56a15.62,15.62,0,0,0-3.88-14.24,14.16,14.16,0,0,0-13.63-4l-48.48,11.92q-4.71-4.17-9.56-8.2l1.75-51.9A15.39,15.39,0,0,0,1242,483a14.06,14.06,0,0,0-14.14-1.19l-45.23,21.5c-3.64-2.09-7.3-4.16-11-6.16l-8-51.15a15.12,15.12,0,0,0-8.82-11.6,14,14,0,0,0-14.07,1.71l-40.33,30.26c-4-1.32-8-2.59-12-3.79l-17.38-48.51a14.75,14.75,0,0,0-10.81-9.6,14.25,14.25,0,0,0-13.48,4.54l-33.94,38c-4.11-.47-8.21-.9-12.33-1.25L974.3,401.55a14.26,14.26,0,0,0-24.77,0l-26.21,44.16c-4.12.35-8.24.78-12.34,1.25L877,409a14.29,14.29,0,0,0-13.49-4.54,14.75,14.75,0,0,0-10.81,9.6l-17.39,48.51c-4,1.2-8,2.48-12,3.79L783,436.09A14,14,0,0,0,769,434.38a15.15,15.15,0,0,0-8.81,11.6l-8,51.15q-5.55,3-11,6.16l-45.22-21.5A14,14,0,0,0,681.78,483a15.34,15.34,0,0,0-6.47,13.17l1.74,51.9q-4.83,4-9.56,8.2L619,544.33a14.19,14.19,0,0,0-13.65,4,15.63,15.63,0,0,0-3.89,14.24l11.42,50.56q-4,4.92-7.84,9.94l-49.77-1.81a14.53,14.53,0,0,0-12.63,6.75,15.75,15.75,0,0,0-1.14,14.75L562.14,690c-2,3.79-4,7.61-5.91,11.48l-49,8.33A14.69,14.69,0,0,0,496.07,719a15.83,15.83,0,0,0,1.64,14.71l29,42c-.22.74-.43,1.49-.65,2.24l-82,87.12s-12.57,9.85,5.73,33c16.13,20.42,99,101.38,142.75,143.79,18.48,21.53,31.14,34.87,32.46,33.71,2.09-1.83-8.87-41-45.27-87-28.06-41.24-64.48-104.66-55.94-112,0,0,9.71-12.33,29.2-21.2h0s411.32,189.73,792.85,3.21h0c43.58-7.82,70,15.53,70,15.53,9.1,5.27-14.47,70.49-33.84,113.66-26.35,49-30.22,87.28-28,88.6,1.41.85,11-13.74,24.67-37,33.75-47,97.54-136.67,109.22-158.44C1501.11,856.3,1487.87,849.38,1487.87,849.38Z" transform="translate(-71.78 -39.07)"/><path d="M1105.86,969.57c1.57-1.34,2.4-2.14,2.4-2.14L973.61,954.92c109.9-145,197.86-28,207.23-15.1v29.75Z" transform="translate(-71.78 -39.07)"/><path class="b" d="M487,688.43l.3-.45-.31,0C487,688.14,487,688.28,487,688.43Z" transform="translate(-71.78 -39.07)"/><path class="b" d="M458.54,720s2.16-1.71,5.57-4.93c-13.52-18-18.32-40.49-31.11-60.1-1-3,1-6,0-9h-3c-1-2,1-4,0-6h-1.11l-.2,6.56S382.47,602,384.51,523.88c0,0-143.78,69.18,24.47,191.58,0,0,5.68,65.7,157,145l22.46-50.64S477.32,766.58,458.54,720Z" transform="translate(-71.78 -39.07)"/><path d="M1040,750.51s41.1-45,82.21,0c0,0,32.3,60,0,90,0,0-52.85,42-82.21,0C1040,840.52,1004.72,807.52,1040,750.51Z" transform="translate(-71.78 -39.07)"/><path class="c" d="M1087.54,767.2c0,17.53-10.33,31.73-23.07,31.73s-23.07-14.2-23.07-31.73,10.33-31.73,23.07-31.73S1087.54,749.67,1087.54,767.2Z" transform="translate(-71.78 -39.07)"/><path d="M856.49,738.22S927,707,946.24,776.68c0,0,20.16,81.22-57.9,85.8C888.34,862.48,788.8,843.31,856.49,738.22Z" transform="translate(-71.78 -39.07)"/><path class="c" d="M891.9,768.35c0,18.08-10.65,32.73-23.79,32.73s-23.79-14.65-23.79-32.73,10.65-32.73,23.79-32.73S891.9,750.28,891.9,768.35Z" transform="translate(-71.78 -39.07)"/><path class="b" d="M1312.23,826.87s-14.72,58.64-106.29,120.27l-25.68,6s-83.06-151.49-200.74,19.22c0,0,36.67-21.36,135,4.65,0,0-45.23,69.22-136.35,67.1,0,0,87.32,104.75,220.18-46.56,0,0,140.46-54.31,151.85-170.7Z" transform="translate(-71.78 -39.07)"/><path class="b" d="M429,644h3c1,3-1,6,0,9,12.79,19.61,17.59,42.12,31.11,60.1A169.05,169.05,0,0,0,486,686.43c0-.15,0-.29,0-.43l.31,0c26.75-39.11,48.66-109.06-54.39-181.83l-4,133.85H429C430,640,428,642,429,644Z" transform="translate(-71.78 -39.07)"/><line class="d" x1="358.2" y1="48.06" x2="358.2" y2="611.93"/><line class="d" x1="631.22" y1="322.19" x2="42.84" y2="403.54"/><line class="d" x1="478.55" y1="523.89" x2="283.54" y2="259.79"/><path d="M438.81,41.12l-15,21.94v.12h13.72v2.93H419.27V64l14.92-21.86V42H419.07V39.07h19.74Z" transform="translate(-71.78 -39.07)"/><path d="M80.85,464.9V453.39l-9.07-15.53h4l3.9,7.47c1,2,2,3.81,2.72,5.57h.08c.85-1.88,1.65-3.53,2.69-5.57L89,437.86h4l-8.54,15.57V464.9Z" transform="translate(-71.78 -39.07)"/><path d="M556.9,601.52l8.42-13.88-8.22-13.16h4l3.69,6.34c1,1.72,1.69,3,2.45,4.57h.12c.72-1.44,1.48-2.81,2.48-4.57l3.58-6.34h4.05l-8,13.36,8.27,13.68h-4l-3.25-5.94c-1.41-2.37-2.17-3.81-2.93-5.37h-.08c-.84,1.56-1.73,3-3.13,5.33l-3.45,6Z" transform="translate(-71.78 -39.07)"/></svg>